<svg width="185" height="91" viewBox="0 0 185 91" fill="none" xmlns="http://www.w3.org/2000/svg">
<g clip-path="url(#clip0_758_2)">
<path d="M178 0H7C3.13401 0 0 3.13401 0 7V83.0333C0 86.8993 3.13401 90.0333 7 90.0333H178C181.866 90.0333 185 86.8993 185 83.0333V7C185 3.13401 181.866 0 178 0Z" fill="#AFA5D6"/>
<path d="M24.274 22.4727L28.6888 37.6511H28.8569L33.2717 22.4727H39.8729L32.7672 44H24.7785L17.6729 22.4727H24.274Z" fill="#4D4884"/>
<path d="M46.606 22.4727V44H40.7617V22.4727H46.606Z" fill="#4D4884"/>
<path d="M59.7966 29.2002C59.7406 28.4995 59.4778 27.9529 59.0083 27.5605C58.5458 27.1681 57.8415 26.9718 56.8955 26.9718C56.2928 26.9718 55.7988 27.0454 55.4134 27.1926C55.035 27.3327 54.7547 27.5254 54.5725 27.7707C54.3903 28.016 54.2957 28.2963 54.2887 28.6116C54.2747 28.8709 54.3202 29.1056 54.4253 29.3159C54.5374 29.5191 54.7126 29.7048 54.9509 29.873C55.1891 30.0341 55.494 30.1813 55.8654 30.3145C56.2368 30.4476 56.6783 30.5667 57.1898 30.6718L58.9557 31.0502C60.147 31.3025 61.1666 31.6354 62.0145 32.0488C62.8624 32.4623 63.5562 32.9493 64.0958 33.5099C64.6354 34.0635 65.0313 34.6872 65.2836 35.3809C65.5428 36.0747 65.676 36.8315 65.683 37.6514C65.676 39.0669 65.3221 40.2652 64.6213 41.2463C63.9206 42.2273 62.9185 42.9736 61.6151 43.4852C60.3187 43.9967 58.7595 44.2525 56.9375 44.2525C55.0665 44.2525 53.4338 43.9757 52.0392 43.4221C50.6517 42.8685 49.5726 42.0171 48.8017 40.8679C48.0379 39.7116 47.6525 38.233 47.6455 36.4321H53.1955C53.2305 37.0908 53.3952 37.6444 53.6895 38.0929C53.9838 38.5413 54.3973 38.8812 54.9299 39.1125C55.4695 39.3437 56.1106 39.4593 56.8534 39.4593C57.4771 39.4593 57.9992 39.3823 58.4196 39.2281C58.8401 39.0739 59.1589 38.8602 59.3762 38.5869C59.5934 38.3136 59.7055 38.0018 59.7125 37.6514C59.7055 37.322 59.5969 37.0347 59.3867 36.7895C59.1835 36.5372 58.8471 36.3129 58.3776 36.1167C57.9081 35.9135 57.2739 35.7243 56.475 35.5491L54.3307 35.0866C52.4247 34.6732 50.9215 33.9829 49.8213 33.0159C48.7282 32.0418 48.1851 30.7139 48.1921 29.0321C48.1851 27.6656 48.5495 26.4708 49.2853 25.4477C50.0281 24.4176 51.0547 23.6152 52.3651 23.0406C53.6825 22.466 55.1927 22.1787 56.8955 22.1787C58.6334 22.1787 60.1365 22.4695 61.4049 23.0511C62.6732 23.6327 63.6508 24.4526 64.3375 25.5108C65.0313 26.5619 65.3817 27.7917 65.3887 29.2002H59.7966Z" fill="#4D4884"/>
<path d="M66.7227 44V22.4727H72.5671V30.8818H80.3034V22.4727H86.1477V44H80.3034V35.5909H72.5671V44H66.7227Z" fill="#4D4884"/>
<path d="M93.2044 44L86.8555 22.4727H93.3725L96.3157 35.717H96.4839L99.9737 22.4727H105.103L108.593 35.759H108.761L111.704 22.4727H118.221L111.872 44H106.28L102.622 31.9749H102.454L98.7964 44H93.2044Z" fill="#4D4884"/>
<path d="M122.007 44H115.7L122.805 22.4727H130.794L137.9 44H131.593L126.884 28.4011H126.716L122.007 44ZM120.829 35.5068H132.686V39.8795H120.829V35.5068Z" fill="#4D4884"/>
<path d="M149.555 29.2002C149.499 28.4995 149.237 27.9529 148.767 27.5605C148.305 27.1681 147.6 26.9718 146.654 26.9718C146.052 26.9718 145.558 27.0454 145.172 27.1926C144.794 27.3327 144.513 27.5254 144.331 27.7707C144.149 28.016 144.054 28.2963 144.047 28.6116C144.033 28.8709 144.079 29.1056 144.184 29.3159C144.296 29.5191 144.471 29.7048 144.71 29.873C144.948 30.0341 145.253 30.1813 145.624 30.3145C145.996 30.4476 146.437 30.5667 146.949 30.6718L148.714 31.0502C149.906 31.3025 150.925 31.6354 151.773 32.0488C152.621 32.4623 153.315 32.9493 153.855 33.5099C154.394 34.0635 154.79 34.6872 155.042 35.3809C155.302 36.0747 155.435 36.8315 155.442 37.6514C155.435 39.0669 155.081 40.2652 154.38 41.2463C153.679 42.2273 152.677 42.9736 151.374 43.4852C150.077 43.9967 148.518 44.2525 146.696 44.2525C144.825 44.2525 143.192 43.9757 141.798 43.4221C140.41 42.8685 139.331 42.0171 138.56 40.8679C137.797 39.7116 137.411 38.233 137.404 36.4321H142.954C142.989 37.0908 143.154 37.6444 143.448 38.0929C143.743 38.5413 144.156 38.8812 144.689 39.1125C145.228 39.3437 145.869 39.4593 146.612 39.4593C147.236 39.4593 147.758 39.3823 148.178 39.2281C148.599 39.0739 148.918 38.8602 149.135 38.5869C149.352 38.3136 149.464 38.0018 149.471 37.6514C149.464 37.322 149.356 37.0347 149.145 36.7895C148.942 36.5372 148.606 36.3129 148.136 36.1167C147.667 35.9135 147.033 35.7243 146.234 35.5491L144.089 35.0866C142.183 34.6732 140.68 33.9829 139.58 33.0159C138.487 32.0418 137.944 30.7139 137.951 29.0321C137.944 27.6656 138.308 26.4708 139.044 25.4477C139.787 24.4176 140.813 23.6152 142.124 23.0406C143.441 22.466 144.951 22.1787 146.654 22.1787C148.392 22.1787 149.895 22.4695 151.164 23.0511C152.432 23.6327 153.41 24.4526 154.096 25.5108C154.79 26.5619 155.14 27.7917 155.147 29.2002H149.555Z" fill="#4D4884"/>
<path d="M18.3877 73.9999V52.4727H24.232V60.8818H31.9684V52.4727H37.8127V73.9999H31.9684V65.5909H24.232V73.9999H18.3877Z" fill="#4D4884"/>
<path d="M64.214 60.5457H58.2856C58.2436 60.0552 58.1315 59.6102 57.9493 59.2108C57.7741 58.8113 57.5288 58.468 57.2135 58.1806C56.9051 57.8863 56.5302 57.6621 56.0887 57.5079C55.6473 57.3467 55.1462 57.2662 54.5856 57.2662C53.6046 57.2662 52.7742 57.5044 52.0944 57.9809C51.4217 58.4574 50.9101 59.1407 50.5598 60.0306C50.2164 60.9206 50.0447 61.9893 50.0447 63.2366C50.0447 64.554 50.2199 65.6577 50.5703 66.5477C50.9277 67.4306 51.4427 68.0964 52.1155 68.5449C52.7882 68.9863 53.5976 69.2071 54.5436 69.2071C55.0832 69.2071 55.5667 69.1405 55.9941 69.0074C56.4216 68.8672 56.793 68.6675 57.1083 68.4082C57.4237 68.1489 57.6795 67.8371 57.8757 67.4727C58.0789 67.1013 58.2155 66.6843 58.2856 66.2218L64.214 66.2639C64.144 67.1749 63.8882 68.1034 63.4467 69.0494C63.0052 69.9884 62.378 70.8574 61.5652 71.6562C60.7593 72.4481 59.7607 73.0858 58.5694 73.5693C57.3781 74.0528 55.9941 74.2946 54.4174 74.2946C52.4413 74.2946 50.6684 73.8706 49.0987 73.0227C47.536 72.1748 46.2992 70.9274 45.3882 69.2806C44.4842 67.6339 44.0322 65.6192 44.0322 63.2366C44.0322 60.84 44.4947 58.8218 45.4197 57.1821C46.3447 55.5353 47.5921 54.2914 49.1618 53.4505C50.7315 52.6026 52.4833 52.1787 54.4174 52.1787C55.7769 52.1787 57.0278 52.3644 58.17 52.7358C59.3122 53.1072 60.3143 53.6502 61.1762 54.365C62.0382 55.0728 62.7319 55.9452 63.2575 56.9824C63.7831 58.0195 64.1019 59.2073 64.214 60.5457Z" fill="#4D4884"/>
<path d="M76.2809 52.4727L80.6956 67.6511H80.8638L85.2786 52.4727H91.8797L84.774 73.9999H76.7854L69.6797 52.4727H76.2809Z" fill="#4D4884"/>
<path d="M155.206 15.6726V14.4609H160.02V15.6726H158.354V20.0002H156.872V15.6726H155.206Z" fill="#4D4884"/>
<path d="M160.281 14.4609H162.153L163.44 17.5984H163.505L164.793 14.4609H166.664V20.0002H165.193V16.7978H165.15L163.916 19.9569H163.029L161.796 16.7762H161.753V20.0002H160.281V14.4609Z" fill="#4D4884"/>
</g>
<defs>
<clipPath id="clip0_758_2">
<rect width="185" height="91" fill="white"/>
</clipPath>
</defs>
</svg>
